<svg xmlns="http://www.w3.org/2000/svg" viewBox="0 0 512 512" fill="currentColor">
    <path d="M448 42.7 H384 V0 H341.3 V42.7 H170.7 V0 H128 V42.7 H64 A64,64 0 0 0 0,106.7 V512 H512 V106.7 A64,64 0 0 0 448,42.7 Z M42.7,106.7 A21.3,21.3 0 0 1 64,85.3 H448 a21.3,21.3 0 0 1 21.3,21.3 V170.7 H42.7 Z M42.7,469.3 V213.3 H469.3 V469.3 Z M320 277.3 H362.7 V320 H320 Z M234.7 277.3 H277.3 V320 H234.7 Z M149.3 277.3 H192 V320 H149.3 Z M320 362.7 H362.7 V405.3 H320 Z M234.7 362.7 H277.3 V405.3 H234.7 Z M149.3 362.7 H192 V405.3 H149.3 Z"
    />
</svg>