<svg xmlns="http://www.w3.org/2000/svg" viewBox="0 0 512 512" fill="currentColor">
    <path d="m405.333,0h-128c-58.816,0-106.667,47.851-106.667,106.667v128c0,58.816,47.851,106.667,106.667,106.667h128c58.816,0,106.667-47.851,106.667-106.667v-128c0-58.816-47.851-106.667-106.667-106.667Zm64,234.667c0,35.285-28.715,64-64,64h-128c-35.285,0-64-28.715-64-64v-128c0-35.285,28.715-64,64-64h128c35.285,0,64,28.715,64,64v128Zm-128,170.667c0,58.816-47.851,106.667-106.667,106.667h-128c-58.816,0-106.667-47.851-106.667-106.667v-128c0-58.816,47.851-106.667,106.667-106.667,11.797,0,21.333,9.557,21.333,21.333s-9.536,21.333-21.333,21.333c-35.285,0-64,28.715-64,64v128c0,35.285,28.715,64,64,64h128c35.285,0,64-28.715,64-64,0-11.776,9.536-21.333,21.333-21.333s21.333,9.557,21.333,21.333Z"/>
</svg>