<svg xmlns="http://www.w3.org/2000/svg" viewBox="0 0 512 512" fill="currentColor">
<path d="M256,0 a256,256,0,1,0,256,256 A256.277,256.277,0,0,0,256,0 Z 
             m21.333,468.245 v-41.579 a21.333,21.333,0,0,0,-42.667,0 v41.579 a213.653,213.653,0,0,1,-190.912,-190.912 h41.579 a21.333,21.333,0,0,0,0,-42.667 h-41.579 a213.653,213.653,0,0,1,190.912,-190.912 v41.579 a21.333,21.333,0,0,0,42.667,0 v-41.579 a213.653,213.653,0,0,1,190.912,190.912 h-41.579 a21.333,21.333,0,0,0,0,42.667 h41.579 a213.653,213.653,0,0,1,-190.912,190.912 Z 
             m64,-212.245 a21.333,21.333,0,0,1,-21.333,21.333 h-42.667 v42.667 a21.333,21.333,0,0,1,-42.667,0 v-42.667 h-42.667 a21.333,21.333,0,0,1,0,-42.667 h42.667 v-42.667 a21.333,21.333,0,0,1,42.667,0 v42.667 h42.667 a21.333,21.333,0,0,1,21.333,21.333 Z"/>
</svg>