<svg xmlns="http://www.w3.org/2000/svg" viewBox="0 0 512 512" fill="currentColor">
    <path d="M210.731 386.603a64 64 0 0 0 90.539 0l68.501-68.501A21.333 21.333 0 0 0 339.605 288l-62.421 62.443L277.333 21.333a21.333 21.333 0 0 0-21.333-21.333h0a21.333 21.333 0 0 0-21.333 21.333l-0.192 328.704L172.395 288a21.333 21.333 0 0 0-30.165 30.187ZM490.667 341.333h0a21.333 21.333 0 0 0-21.333 21.333v85.333a21.333 21.333 0 0 1-21.333 21.333H64a21.333 21.333 0 0 1-21.333-21.333V362.667a21.333 21.333 0 0 0-21.333-21.333H1a21.333 21.333 0 0 0-21.333 21.333v85.333a64 64 0 0 0 64 64H448a64 64 0 0 0 64-64V362.667A21.333 21.333 0 0 0 490.667 341.333Z"/>
</svg>