<svg xmlns="http://www.w3.org/2000/svg" viewBox="0 0 512 512" fill="currentColor">
<path d="M441.6,100.779 l34.027,34.005 A21.333,21.333,0,0,0,512,119.744 l0,-98.133 a21.333,21.333,0,0,0,-21.333,-21.333 H392.384 a21.333,21.333,0,0,0,-15.083,36.373 l34.133,34.027 L256,225.856 L100.459,70.4 L134.7,36.267 A21.333,21.333,0,0,0,119.616,-0.171 L21.333,-0.213 a21.333,21.333,0,0,0,-21.333,21.333 v98.133 A21.333,21.333,0,0,0,36.459,134.4 L70.4,100.565 L225.856,256 L70.507,411.221 l-34.133,-34.027 A21.333,21.333,0,0,0,0,392.256 l0,98.133 a21.333,21.333,0,0,0,21.333,21.333 H119.616 a21.333,21.333,0,0,0,15.083,-36.267 L100.672,441.365 L256,286.144 l155.349,155.2 l-34.133,34.133 a21.333,21.333,0,0,0,15.083,36.267 l98.24,0 a21.333,21.333,0,0,0,21.333,-21.333 v-98.133 a21.333,21.333,0,0,0,-36.416,-15.083 L441.6,411.2 L286.165,256 Z"/>
</svg>