<svg xmlns="http://www.w3.org/2000/svg" viewBox="0 0 512 512" fill="currentColor">
<path d="M30.165,0 L0,30.165 L91.584,121.749 L42.667,170.667 H149.333 A21.333,21.333,0,0,0,170.667,149.333 V42.667 L121.749,91.584 Z 
             M469.333,341.333 H362.667 a21.333,21.333,0,0,0,-21.333,21.333 v106.667 l48.917,-48.917 L481.835,512 L512,481.835 l-91.584,-91.584 Z 
             M362.667,170.667 h106.667 L420.416,121.749 L512,30.165 L481.835,0 L390.251,91.584 L341.333,42.667 V149.333 A21.333,21.333,0,0,0,362.667,170.667 Z 
             M149.333,341.333 H42.667 l48.917,48.917 L0,481.835 L30.165,512 l91.584,-91.584 L170.667,469.333 V362.667 A21.333,21.333,0,0,0,149.333,341.333 Z"/>
</svg>