<svg xmlns="http://www.w3.org/2000/svg" viewBox="0 0 512 512" fill="currentColor">
    <path d="M256,0A255.744,255.744,0,0,0,85.333,65.557V21.333A21.333,21.333,0,0,0,42.667,21.333V85.333A64,64,0,0,0,106.667,149.333H170.667A21.333,21.333,0,0,0,170.667,106.667H106.667a18.219,18.219,0,0,1-2.133-.448A213.077,213.077,0,1,1,42.667,256a21.333,21.333,0,0,0-42.667,0A256,256,0,1,0,256,0ZM256,128a21.333,21.333,0,0,0-21.333,21.333v106.667a21.333,21.333,0,0,0,6.251,15.083l64,64a21.333,21.333,0,0,0,30.165-30.166L277.333,247.253V149.333A21.333,21.333,0,0,0,256,128Z"/>
</svg>