<svg xmlns="http://www.w3.org/2000/svg" viewBox="0 0 512 512" fill="currentColor">
    <path d="M193.451,348.736 l104.533,104.533 15.083,-15.083 a170.176,170.176,0,0,0,44.267,-162.539 l-5.248,-21.333 44.501,-44.501 4.629,4.629 a65.813,65.813,0,0,0,83.995,8.533 64,64,0,0,0,8.107,-97.387 L388.267,20.352 a65.813,65.813,0,0,0,-83.995,-8.533 64,64,0,0,0,-8.107,97.387 l6.251,6.251 L257.813,160 236.8,154.837 A170.347,170.347,0,0,0,73.9,199.04 l-15.083,15.083 104.533,104.427 L6.251,475.584 l30.165,30.165 Z M226.283,196.267 l44.8,10.965 91.733,-91.733 L326.251,79.083 a21.333,21.333,0,0,1,2.859,-32.597 23.125,23.125,0,0,1,28.928,4.053 l105.045,105.045 h0 a21.333,21.333,0,0,1,-2.859,32.597 23.125,23.125,0,0,1,-28.928,-4.053 L396.501,149.333 l-91.733,91.733 11.051,45.035 a127.509,127.509,0,0,1,-19.2,105.515 L120.448,215.467 A127.7,127.7,0,0,1,226.283,196.267 Z"/>
</svg>