<svg xmlns="http://www.w3.org/2000/svg" viewBox="0 0 512 512" fill="currentColor">
    <path d="M448,85.333H381.867A106.859,106.859,0,0,0,277.333,0H234.667A106.859,106.859,0,0,0,130.133,85.333H64A21.333,21.333,0,0,0,64,128H85.333V405.333a106.795,106.795,0,0,0,106.667,106.667h128a106.795,106.795,0,0,0,106.667-106.667V128h21.333a21.333,21.333,0,0,0,0-42.667ZM234.667,42.667h42.667a64.128,64.128,0,0,1,60.352,42.667H174.315A64.128,64.128,0,0,1,234.667,42.667ZM384,405.333a64,64,0,0,1-64,64H192a64,64,0,0,1-64-64V128H384Z M213.333,384a21.333,21.333,0,0,0,21.333-21.333V234.667a21.333,21.333,0,0,0-42.667,0v128A21.333,21.333,0,0,0,213.333,384Z M298.667,384a21.333,21.333,0,0,0,21.333-21.333V234.667a21.333,21.333,0,0,0-42.667,0v128A21.333,21.333,0,0,0,298.667,384Z"/>
</svg>