<svg xmlns="http://www.w3.org/2000/svg" viewBox="0 0 512 512" fill="currentColor">
    <path d="M234.667 277.333V149.333c0-11.733 9.6-21.333 21.333-21.333s21.333 9.6 21.333 21.333v128c0 11.733-9.6 21.333-21.333 21.333s-21.333-9.6-21.333-21.333Zm21.333 42.667c-17.707 0-32 14.293-32 32s14.293 32 32 32 32-14.293 32-32-14.293-32-32-32Zm247.04 104.107c-14.933 28.8-46.293 45.227-85.547 45.227H94.72c-39.467 0-70.613-16.427-85.547-45.227-15.147-29.013-10.88-66.133 10.667-97.28L191.36 55.467c15.147-21.76 39.04-34.133 64.64-34.133s49.493 12.373 64 33.493l172.373 272.427c21.547 31.147 25.6 68.053 10.453 96.853Zm-45.867-72.96s-0.427-0.427-0.427-0.853L284.587 78.293c-6.187-8.747-16.853-14.293-28.587-14.293s-22.4 5.547-29.013 15.147L55.253 350.293c-13.227 18.773-16.213 39.253-8.533 53.973 7.467 14.507 24.533 22.4 47.787 22.4h322.56c23.253 0 40.32-7.893 47.787-22.4 7.68-14.72 4.693-35.2-7.893-53.12Z"/>
</svg>