<svg xmlns="http://www.w3.org/2000/svg" viewBox="0 0 512 512" fill="currentColor">
    <path d="m472.581 364.993-161.6-282.549c-11.213-19.643-31.408-31.408-54.004-31.47h-0.234c-22.509 0-42.682 11.616-54.004 31.109L40.042 364.292c-11.383 19.558-11.446 43.045-0.191 62.603 11.234 19.601 31.408 31.343 54.004 31.408l325.094 1.062h0.212c22.486 0 42.64-11.595 54.004-31.046 11.383-19.558 11.468-43.045 0.234-62.882zm-22.254 50.015c-6.71 11.532-18.646 18.389-32.003 18.389h-0.128l-325.094-1.062c-13.356-0.042-25.292-7.008-32.003-18.604-6.668-11.638-6.626-25.526 0.106-37.142l163.442-281.499c6.71-11.532 18.667-18.428 32.003-18.428h0.149c13.356 0.042 25.313 7.008 32.003 18.646l161.6 282.549c6.647 11.659 6.605 25.547-0.149 37.142zm-207.24-115.367v-100.875c0-7.051 5.712-12.742 12.742-12.742s12.742 5.691 12.742 12.742v100.875c0 7.051-5.712 12.742-12.742 12.742s-12.742-5.691-12.742-12.742zm29.728 58.502c0 9.406-7.603 17.008-17.008 17.008s-17.008-7.603-17.008-17.008 7.603-17.008 17.008-17.008 17.008 7.603 17.008 17.008z"/>
</svg>